<svg xmlns="http://www.w3.org/2000/svg" viewBox="215 65 380 380" role="img" aria-label="Sophie's Bakery monogram">
<g transform="translate(224.35 392.09) scale(1.3912 1.2422)"><path d="M93.160-244.800Q112.200-244.800 122.400-240.720Q132.600-236.640 140.080-231.880Q144.160-229.500 146.710-228.310Q149.260-227.120 151.640-227.120Q155.040-227.120 156.570-230.860Q158.100-234.600 159.120-242.080L166.940-242.080Q166.600-235.620 166.090-227.120Q165.580-218.620 165.410-204.510Q165.240-190.400 165.240-167.280L157.420-167.280Q156.400-184.620 149.770-200.600Q143.140-216.580 131.070-226.950Q119.000-237.320 100.300-237.320Q83.640-237.320 72.590-227.460Q61.540-217.600 61.540-200.940Q61.540-186.660 68.680-176.970Q75.820-167.280 88.910-158.270Q102.000-149.260 120.020-137.700Q136.680-126.820 149.940-116.110Q163.200-105.400 170.850-92.480Q178.500-79.560 178.500-60.860Q178.500-38.760 167.620-24.140Q156.740-9.520 138.380-2.380Q120.020 4.760 98.260 4.760Q78.200 4.760 66.470 0.680Q54.740-3.400 46.240-7.820Q38.760-12.580 34.680-12.580Q31.280-12.580 29.750-8.840Q28.220-5.100 27.200 2.380L19.380 2.380Q20.060-5.440 20.230-15.980Q20.400-26.520 20.570-43.350Q20.740-60.180 20.740-86.020L28.560-86.020Q29.920-64.260 36.210-45.390Q42.500-26.520 55.590-14.960Q68.680-3.400 90.440-3.400Q102.340-3.400 112.030-7.650Q121.720-11.900 127.500-20.910Q133.280-29.920 133.280-43.860Q133.280-57.800 126.820-68.340Q120.360-78.880 108.800-88.060Q97.240-97.240 81.600-106.760Q65.620-116.960 51.680-127.500Q37.740-138.040 29.410-151.470Q21.080-164.900 21.080-183.940Q21.080-205.020 31.280-218.450Q41.480-231.880 57.970-238.340Q74.460-244.800 93.160-244.800" fill="#7D9268"/></g>
<g>
  <path d="M243 374 C 310 396, 380 392, 445 372 C 495 357, 530 340, 562 322" fill="none" stroke="#C9994B" stroke-width="5" stroke-linecap="round"/>
  <path d="M250 360 C 310 376, 360 396, 430 398 C 490 399, 535 378, 562 350" fill="none" stroke="#C9994B" stroke-width="5" stroke-linecap="round"/>
  <path d="M0 0 Q 14.4 -6.5 32 0 Q 14.4 6.5 0 0 Z" transform="translate(472.0 412.0) rotate(-83)" fill="#C9994B"/>
  <path d="M0 0 Q 14.4 -6.5 32 0 Q 14.4 6.5 0 0 Z" transform="translate(472.0 412.0) rotate(-23)" fill="#C9994B"/>
  <path d="M0 0 Q 13.9 -6.3 30.8 0 Q 13.9 6.3 0 0 Z" transform="translate(483.7 397.0) rotate(-83)" fill="#C9994B"/>
  <path d="M0 0 Q 13.9 -6.3 30.8 0 Q 13.9 6.3 0 0 Z" transform="translate(483.7 397.0) rotate(-23)" fill="#C9994B"/>
  <path d="M0 0 Q 13.3 -6.0 29.6 0 Q 13.3 6.0 0 0 Z" transform="translate(495.4 382.1) rotate(-83)" fill="#C9994B"/>
  <path d="M0 0 Q 13.3 -6.0 29.6 0 Q 13.3 6.0 0 0 Z" transform="translate(495.4 382.1) rotate(-23)" fill="#C9994B"/>
  <path d="M0 0 Q 12.8 -5.8 28.4 0 Q 12.8 5.8 0 0 Z" transform="translate(507.1 367.1) rotate(-83)" fill="#C9994B"/>
  <path d="M0 0 Q 12.8 -5.8 28.4 0 Q 12.8 5.8 0 0 Z" transform="translate(507.1 367.1) rotate(-23)" fill="#C9994B"/>
  <path d="M0 0 Q 12.2 -5.5 27.2 0 Q 12.2 5.5 0 0 Z" transform="translate(518.8 352.1) rotate(-83)" fill="#C9994B"/>
  <path d="M0 0 Q 12.2 -5.5 27.2 0 Q 12.2 5.5 0 0 Z" transform="translate(518.8 352.1) rotate(-23)" fill="#C9994B"/>
  <path d="M0 0 Q 11.7 -5.3 26 0 Q 11.7 5.3 0 0 Z" transform="translate(530.5 337.1) rotate(-83)" fill="#C9994B"/>
  <path d="M0 0 Q 11.7 -5.3 26 0 Q 11.7 5.3 0 0 Z" transform="translate(530.5 337.1) rotate(-23)" fill="#C9994B"/>
  <path d="M0 0 Q 12.6 -5.0 28 0 Q 12.6 5.0 0 0 Z" transform="translate(538.5 326.9) rotate(-52)" fill="#C9994B"/>
</g>
</svg>
