<svg xmlns="http://www.w3.org/2000/svg" viewBox="0 0 720 720" role="img" aria-label="Sophie's Bakery">
<!-- monogram S -->
<g transform="translate(224.35 392.09) scale(1.3912 1.2422)"><path d="M93.160-244.800Q112.200-244.800 122.400-240.720Q132.600-236.640 140.080-231.880Q144.160-229.500 146.710-228.310Q149.260-227.120 151.640-227.120Q155.040-227.120 156.570-230.860Q158.100-234.600 159.120-242.080L166.940-242.080Q166.600-235.620 166.090-227.120Q165.580-218.620 165.410-204.510Q165.240-190.400 165.240-167.280L157.420-167.280Q156.400-184.620 149.770-200.600Q143.140-216.580 131.070-226.950Q119.000-237.320 100.300-237.320Q83.640-237.320 72.590-227.460Q61.540-217.600 61.540-200.940Q61.540-186.660 68.680-176.970Q75.820-167.280 88.910-158.270Q102.000-149.260 120.020-137.700Q136.680-126.820 149.940-116.110Q163.200-105.400 170.850-92.480Q178.500-79.560 178.500-60.860Q178.500-38.760 167.620-24.140Q156.740-9.520 138.380-2.380Q120.020 4.760 98.260 4.760Q78.200 4.760 66.470 0.680Q54.740-3.400 46.240-7.820Q38.760-12.580 34.680-12.580Q31.280-12.580 29.750-8.840Q28.220-5.100 27.200 2.380L19.380 2.380Q20.060-5.440 20.230-15.980Q20.400-26.520 20.570-43.350Q20.740-60.180 20.740-86.020L28.560-86.020Q29.920-64.260 36.210-45.390Q42.500-26.520 55.590-14.960Q68.680-3.400 90.440-3.400Q102.340-3.400 112.030-7.650Q121.720-11.900 127.500-20.910Q133.280-29.920 133.280-43.860Q133.280-57.800 126.820-68.340Q120.360-78.880 108.800-88.060Q97.240-97.240 81.600-106.760Q65.620-116.960 51.680-127.500Q37.740-138.040 29.410-151.470Q21.080-164.900 21.080-183.940Q21.080-205.020 31.280-218.450Q41.480-231.880 57.970-238.340Q74.460-244.800 93.160-244.800" fill="#7D9268"/></g>
<!-- wheat sprig -->
<g>
  <path d="M243 374 C 310 396, 380 392, 445 372 C 495 357, 530 340, 562 322" fill="none" stroke="#C9994B" stroke-width="5" stroke-linecap="round"/>
  <path d="M250 360 C 310 376, 360 396, 430 398 C 490 399, 535 378, 562 350" fill="none" stroke="#C9994B" stroke-width="5" stroke-linecap="round"/>
  <path d="M0 0 Q 14.4 -6.5 32 0 Q 14.4 6.5 0 0 Z" transform="translate(472.0 412.0) rotate(-83)" fill="#C9994B"/>
  <path d="M0 0 Q 14.4 -6.5 32 0 Q 14.4 6.5 0 0 Z" transform="translate(472.0 412.0) rotate(-23)" fill="#C9994B"/>
  <path d="M0 0 Q 13.9 -6.3 30.8 0 Q 13.9 6.3 0 0 Z" transform="translate(483.7 397.0) rotate(-83)" fill="#C9994B"/>
  <path d="M0 0 Q 13.9 -6.3 30.8 0 Q 13.9 6.3 0 0 Z" transform="translate(483.7 397.0) rotate(-23)" fill="#C9994B"/>
  <path d="M0 0 Q 13.3 -6.0 29.6 0 Q 13.3 6.0 0 0 Z" transform="translate(495.4 382.1) rotate(-83)" fill="#C9994B"/>
  <path d="M0 0 Q 13.3 -6.0 29.6 0 Q 13.3 6.0 0 0 Z" transform="translate(495.4 382.1) rotate(-23)" fill="#C9994B"/>
  <path d="M0 0 Q 12.8 -5.8 28.4 0 Q 12.8 5.8 0 0 Z" transform="translate(507.1 367.1) rotate(-83)" fill="#C9994B"/>
  <path d="M0 0 Q 12.8 -5.8 28.4 0 Q 12.8 5.8 0 0 Z" transform="translate(507.1 367.1) rotate(-23)" fill="#C9994B"/>
  <path d="M0 0 Q 12.2 -5.5 27.2 0 Q 12.2 5.5 0 0 Z" transform="translate(518.8 352.1) rotate(-83)" fill="#C9994B"/>
  <path d="M0 0 Q 12.2 -5.5 27.2 0 Q 12.2 5.5 0 0 Z" transform="translate(518.8 352.1) rotate(-23)" fill="#C9994B"/>
  <path d="M0 0 Q 11.7 -5.3 26 0 Q 11.7 5.3 0 0 Z" transform="translate(530.5 337.1) rotate(-83)" fill="#C9994B"/>
  <path d="M0 0 Q 11.7 -5.3 26 0 Q 11.7 5.3 0 0 Z" transform="translate(530.5 337.1) rotate(-23)" fill="#C9994B"/>
  <path d="M0 0 Q 12.6 -5.0 28 0 Q 12.6 5.0 0 0 Z" transform="translate(538.5 326.9) rotate(-52)" fill="#C9994B"/>
</g>
<!-- wordmark -->
<g transform="translate(143.57 528) scale(1.1122 1.1122)"><path d="M62.810-78.650L65.010-78.650Q63.910-75.790 62.040-70.345Q60.170-64.900 58.520-56.210L56.320-56.210Q56.650-57.750 56.815-59.400Q56.980-61.050 56.980-62.480Q56.980-66.550 55.275-69.905Q53.570-73.260 50.160-75.185Q46.750-77.110 41.250-77.110Q35.090-77.110 30.855-73.920Q26.620-70.730 26.620-63.800Q26.620-59.730 28.600-56.155Q30.580-52.580 33.605-49.280Q36.630-45.980 40.150-42.680Q43.670-39.380 46.750-35.915Q49.830-32.450 51.810-28.600Q53.790-24.750 53.790-20.130Q53.790-14.410 51.095-10.285Q48.400-6.160 44.165-3.575Q39.930-0.990 34.925 0.275Q29.920 1.540 25.080 1.540Q20.460 1.540 17.325 0.770Q14.190 0 12.100-1.210Q10.010-2.420 8.360-3.520Q7.150-4.400 6.105-4.785Q5.060-5.170 4.400-5.170Q2.970-5.170 2.035-3.740Q1.100-2.310-0.110 0.770L-2.310 0.770Q-1.320-1.650-0.220-4.840Q0.880-8.030 2.200-13.035Q3.520-18.040 5.170-25.630L7.370-25.630Q6.820-23.430 6.545-21.230Q6.270-19.030 6.380-16.830Q6.710-9.240 11.055-5.005Q15.400-0.770 24.310-0.770Q31.570-0.770 35.695-3.960Q39.820-7.150 39.820-13.750Q39.820-18.370 38.005-22.055Q36.190-25.740 33.385-28.985Q30.580-32.230 27.390-35.310Q24.200-38.390 21.395-41.690Q18.590-44.990 16.830-48.950Q15.070-52.910 15.070-57.750Q15.070-63.140 17.270-67.210Q19.470-71.280 23.100-73.975Q26.730-76.670 31.185-78.045Q35.640-79.420 40.150-79.420Q45.430-79.420 49.005-78.155Q52.580-76.890 55.550-74.690Q56.760-73.810 57.695-73.315Q58.630-72.820 59.180-72.820Q60.720-72.820 62.810-78.650M96.580-55.990Q93.390-55.990 90.310-53.130Q87.230-50.270 84.535-45.375Q81.840-40.480 79.750-34.430Q77.660-28.380 76.505-21.890Q75.350-15.400 75.350-9.570Q75.350-4.950 76.725-2.805Q78.100-0.660 80.740-0.660Q83.930-0.660 87.010-3.520Q90.090-6.380 92.840-11.220Q95.590-16.060 97.625-22.055Q99.660-28.050 100.815-34.540Q101.970-41.030 101.970-47.080Q101.970-51.920 100.650-53.955Q99.330-55.990 96.580-55.990M64.130-16.060Q64.130-20.900 65.450-26.620Q66.770-32.340 69.520-37.950Q72.270-43.560 76.175-48.125Q80.080-52.690 85.415-55.440Q90.750-58.190 97.240-58.190Q104.610-58.190 108.900-53.845Q113.190-49.500 113.190-40.590Q113.190-35.750 111.870-30.030Q110.550-24.310 107.800-18.700Q105.050-13.090 101.145-8.525Q97.240-3.960 91.905-1.210Q86.570 1.540 80.080 1.540Q72.710 1.540 68.420-2.860Q64.130-7.260 64.130-16.060M158.950-53.900Q156.310-53.900 153.065-50.270Q149.820-46.640 146.520-40.480Q143.220-34.320 140.250-26.510Q137.280-18.700 135.300-10.340L137.280-22Q141.680-35.090 145.750-43.010Q149.820-50.930 154.110-54.560Q158.400-58.190 163.130-58.190Q168.740-58.190 171.985-54.175Q175.230-50.160 175.230-42.240Q175.230-37.180 173.855-31.295Q172.480-25.410 169.785-19.635Q167.090-13.860 163.130-9.020Q159.170-4.180 154.110-1.320Q149.050 1.540 142.780 1.540Q139.480 1.540 136.785-0.220Q134.090-1.980 132.990-5.170L133.870-7.260Q135.300-3.960 137.115-2.585Q138.930-1.210 141.350-1.210Q144.870-1.210 148.170-4.015Q151.470-6.820 154.275-11.550Q157.080-16.280 159.225-22Q161.370-27.720 162.470-33.550Q163.570-39.380 163.570-44.440Q163.570-49.500 162.360-51.700Q161.150-53.900 158.950-53.900M118.250 10.780L141.680-73.040Q144.980-73.260 148.060-73.700Q151.140-74.140 153.890-75.130L129.800 9.240Q128.370 14.190 130.900 15.895Q133.430 17.600 138.600 17.600L137.940 19.910Q135.630 19.800 131.340 19.635Q127.050 19.470 122.320 19.470Q118.580 19.470 114.730 19.635Q110.880 19.800 109.010 19.910L109.670 17.600Q113.630 17.600 115.390 16.115Q117.150 14.630 118.250 10.780M120.560-37.620L119.350-39.050Q123.530-43.230 127.215-47.410Q130.900-51.590 134.365-57.310Q137.830-63.030 141.350-71.830L141.680-70.070Q139.370-62.480 136.070-56.815Q132.770-51.150 128.865-46.530Q124.960-41.910 120.560-37.620M215.050-87.450L189.420 0L177.870 0L199.650-73.370Q200.750-77.110 199.375-78.870Q198-80.630 192.610-80.630L193.270-82.940Q199.980-83.050 205.260-84.205Q210.540-85.360 215.050-87.450M189.860-1.870L192.390-16.170Q196.680-28.050 200.475-36.190Q204.270-44.330 207.955-49.170Q211.640-54.010 215.545-56.100Q219.450-58.190 223.850-58.190Q229.020-58.190 231.055-55.770Q233.090-53.350 232.980-49.500Q232.870-45.650 231.440-41.580L220.770-9.350Q219.890-6.490 220.110-4.730Q220.330-2.970 222.420-2.970Q224.290-2.970 226.215-5.060Q228.140-7.150 230.340-13.310L231.990-17.820L234.080-17.820L231.330-9.790Q229.790-5.170 227.480-2.750Q225.170-0.330 222.585 0.605Q220 1.540 217.580 1.540Q212.850 1.540 210.870-0.550Q208.890-2.640 209.110-6.325Q209.330-10.010 210.760-14.520L220.990-45.430Q221.650-47.190 222.035-49.170Q222.420-51.150 221.870-52.580Q221.320-54.010 219.010-54.010Q216.480-54.010 213.510-51.425Q210.540-48.840 207.350-44.110Q204.160-39.380 201.080-32.890Q198-26.400 195.140-18.535Q192.280-10.670 189.860-1.870M259.710-76.120Q260.150-79.640 262.790-81.840Q265.430-84.040 268.840-84.040Q272.030-84.040 273.845-82.005Q275.660-79.970 275.220-77Q274.780-73.590 272.085-71.335Q269.390-69.080 265.980-69.080Q262.790-69.080 261.030-71.115Q259.270-73.150 259.710-76.120M244.640-14.520L256.080-47.300Q258.170-53.680 254.650-53.680Q252.230-53.680 250.360-51.205Q248.490-48.730 246.510-43.340L244.750-38.720L242.660-38.720L245.520-46.860Q247.170-51.370 249.480-53.790Q251.790-56.210 254.485-57.200Q257.180-58.190 259.710-58.190Q263.340-58.190 265.210-56.760Q267.080-55.330 267.520-53.020Q267.960-50.710 267.520-48.015Q267.080-45.320 266.200-42.790L254.540-9.350Q253.440-6.270 253.880-4.620Q254.320-2.970 256.190-2.970Q258.170-2.970 260.040-5.115Q261.910-7.260 264.220-13.310L265.980-17.820L268.070-17.820L265.210-9.790Q263.670-5.390 261.360-2.970Q259.050-0.550 256.465 0.495Q253.880 1.540 251.240 1.540Q246.510 1.540 244.585-0.605Q242.660-2.750 242.880-6.435Q243.100-10.120 244.640-14.520M284.240-22.880L284.350-24.640Q289.960-26.620 294.635-28.710Q299.310-30.800 302.280-33.220Q306.350-36.630 308.715-41.305Q311.080-45.980 311.080-51.590Q311.080-54.450 310.640-55.275Q310.200-56.100 309.320-56.100Q306.680-56.100 303.655-53.680Q300.630-51.260 297.660-47.025Q294.690-42.790 292.215-37.455Q289.740-32.120 288.255-26.125Q286.770-20.130 286.770-14.300Q286.770-8.580 288.915-6.160Q291.060-3.740 294.580-3.740Q298.210-3.740 302.610-5.995Q307.010-8.250 311.300-14.080L313.060-13.200Q310.860-9.570 307.340-6.160Q303.820-2.750 299.365-0.605Q294.910 1.540 289.740 1.540Q285.230 1.540 281.710-0.220Q278.190-1.980 276.265-5.445Q274.340-8.910 274.340-13.970Q274.340-19.030 276.155-25.025Q277.970-31.020 281.325-36.850Q284.680-42.680 289.300-47.575Q293.920-52.470 299.640-55.330Q305.360-58.190 311.740-58.190Q315.700-58.190 318.340-56.265Q320.980-54.340 320.980-50.490Q320.980-46.090 318.505-42.295Q316.030-38.500 311.850-35.420Q307.670-32.340 302.775-29.920Q297.880-27.500 292.985-25.740Q288.090-23.980 284.240-22.880M353.540-72.050Q353.540-66 349.195-60.170Q344.850-54.340 337.260-50.710L336.710-52.360Q341.770-55.330 344.960-59.070Q348.150-62.810 348.480-66.880Q347.050-65.670 345.510-64.845Q343.970-64.020 342.320-64.020Q339.900-64.020 338.580-65.230Q337.260-66.440 337.260-68.530Q337.260-71.170 338.800-73.535Q340.340-75.900 342.705-77.495Q345.070-79.090 347.820-79.090Q350.680-79.090 352.110-77.055Q353.540-75.020 353.540-72.050M356.510-1.650Q357.390-1.210 358.435-0.935Q359.480-0.660 361.350-0.660Q365.860-0.660 368.830-3.465Q371.800-6.270 371.800-11.440Q371.800-14.850 370.425-18.370Q369.050-21.890 365.970-26.290Q363.440-30.030 361.185-33.715Q358.930-37.400 358.930-42.350Q358.930-47.080 361.240-50.600Q363.550-54.120 367.675-56.155Q371.800-58.190 376.970-58.190Q380.380-58.190 383.735-57.365Q387.090-56.540 389.290-54.340Q391.490-52.140 391.490-47.960Q391.490-46.750 390.885-45.210Q390.280-43.670 389.070-42.570Q387.860-41.470 385.880-41.470Q383.790-41.470 382.360-43.010Q380.930-44.550 380.930-46.970Q380.930-49.280 381.810-51.315Q382.690-53.350 384.120-55Q382.250-56.100 379.170-56.100Q375.100-56.100 372.515-53.460Q369.930-50.820 369.930-46.090Q369.930-43.560 370.700-41.525Q371.470-39.490 373.010-37.290Q374.550-35.090 376.530-32.010Q379.390-27.500 381.205-23.650Q383.020-19.800 383.020-15.620Q383.020-10.670 380.435-6.765Q377.850-2.860 373.450-0.660Q369.050 1.540 363.440 1.540Q359.480 1.540 355.795 0.385Q352.110-0.770 349.800-3.245Q347.490-5.720 347.490-10.010Q347.490-11.990 348.645-13.970Q349.800-15.950 352.440-15.950Q355.190-15.950 356.455-13.695Q357.720-11.440 357.720-8.470Q357.720-6.270 357.280-4.620Q356.840-2.970 356.510-1.650" fill="#7D9268"/></g>
<g transform="translate(188.10 642) scale(1.0356 1.0356)"><path d="M46.420-77.770Q57.640-77.770 62.920-73.865Q68.200-69.960 68.200-63.580Q68.200-57.860 64.790-53.295Q61.380-48.730 55.715-45.650Q50.050-42.570 43.340-41.030Q54.230-39.820 58.905-34.925Q63.580-30.030 63.580-23.430Q63.580-17.490 60.775-13.145Q57.970-8.800 53.185-5.885Q48.400-2.970 42.350-1.485Q36.300 0 29.700 0Q25.740 0 21.285-0.165Q16.830-0.330 10.670-0.330Q8.030-0.330 5.280-0.275Q2.530-0.220 0.110-0.165Q-2.310-0.110-3.960 0L-3.520-2.200Q0.220-2.420 2.310-3.080Q4.400-3.740 5.610-5.720Q6.820-7.700 7.810-11.660L22.330-66.220Q23.100-69.520 23.210-71.555Q23.320-73.590 21.725-74.635Q20.130-75.680 15.840-75.680L16.390-77.880Q18.040-77.770 20.405-77.715Q22.770-77.660 25.465-77.605Q28.160-77.550 30.690-77.550Q34.980-77.550 38.720-77.660Q42.460-77.770 46.420-77.770M35.420-39.490L25.630-39.490L26.070-41.360L34.430-41.360Q40.920-41.360 45.595-44.495Q50.270-47.630 52.745-52.745Q55.220-57.860 55.220-63.580Q55.220-69.520 52.745-72.600Q50.270-75.680 44.440-75.680Q40.150-75.680 38.335-74.195Q36.520-72.710 35.310-67.870L20.460-11.660Q19.690-8.690 19.580-6.600Q19.470-4.510 20.790-3.520Q22.110-2.530 25.630-2.530Q34.320-2.530 39.710-5.335Q45.100-8.140 47.630-13.255Q50.160-18.370 50.160-25.190Q50.160-29.590 48.675-32.780Q47.190-35.970 43.945-37.730Q40.700-39.490 35.420-39.490M87.340-2.750Q89.760-2.750 92.730-5.610Q95.700-8.470 98.780-13.475Q101.860-18.480 104.500-25.080Q107.140-31.680 108.900-39.160L106.920-27.170Q103.180-16.720 99.275-10.395Q95.370-4.070 91.300-1.265Q87.230 1.540 82.940 1.540Q77.440 1.540 74.690-2.145Q71.940-5.830 71.940-11.880Q71.940-17.380 73.755-23.650Q75.570-29.920 78.815-36.080Q82.060-42.240 86.240-47.190Q90.420-52.140 95.260-55.165Q100.100-58.190 104.940-58.190Q108.680-58.190 110.715-54.725Q112.750-51.260 111.650-44.660L110.440-44Q111.210-49.170 109.835-52.305Q108.460-55.440 105.380-55.440Q102.740-55.440 99.770-52.745Q96.800-50.050 93.995-45.375Q91.190-40.700 88.825-34.870Q86.460-29.040 85.140-22.825Q83.820-16.610 83.820-10.670Q83.820-6.270 84.755-4.510Q85.690-2.750 87.340-2.750M102.630-14.630L113.630-56.650Q116.930-56.760 120.010-57.090Q123.090-57.420 125.730-58.190L111.760-9.460Q111.430-8.250 111.155-6.765Q110.880-5.280 111.265-4.180Q111.650-3.080 113.300-3.080Q115.280-3.080 117.260-5.225Q119.240-7.370 121.220-13.420L122.760-17.930L124.850-17.930L122.100-9.900Q120.560-5.390 118.360-2.970Q116.160-0.550 113.685 0.495Q111.210 1.540 108.900 1.540Q104.060 1.540 102.080-1.540Q100.650-3.960 101.145-7.425Q101.640-10.890 102.630-14.630M165.990-87.450L140.360 0L128.810 0L150.590-73.370Q151.690-77.110 150.315-78.870Q148.940-80.630 143.550-80.630L144.210-82.940Q150.920-83.050 156.200-84.205Q161.480-85.360 165.990-87.450M171.270-17.600L169.180-7.480Q168.740-5.060 169.180-4.015Q169.620-2.970 171.270-2.970Q173.140-2.970 175.010-5.170Q176.880-7.370 178.860-13.310L180.400-17.820L182.490-17.820L179.850-9.790Q178.420-5.390 176.165-2.915Q173.910-0.440 171.270 0.550Q168.630 1.540 165.880 1.540Q161.700 1.540 159.445-1.210Q157.190-3.960 158.510-9.680L160.380-18.810Q161.810-24.970 159.335-27.885Q156.860-30.800 148.280-31.460L148.280-31.900Q152.680-32.230 157.190-31.900Q161.700-31.570 165.220-30.030Q168.740-28.490 170.500-25.465Q172.260-22.440 171.270-17.600M177.320-55.880Q176-55.880 175.010-55.440Q174.020-55 173.140-54.340Q171.050-52.690 169.675-49.885Q168.300-47.080 166.925-43.890Q165.550-40.700 163.570-37.840Q161.590-34.980 158.290-33.220Q154.990-31.460 149.600-31.570L148.500-31.460L148.720-32.670Q154-33 157.135-34.870Q160.270-36.740 162.085-39.490Q163.900-42.240 165.165-45.320Q166.430-48.400 167.805-51.150Q169.180-53.900 171.490-55.660Q173.360-57.200 175.010-57.695Q176.660-58.190 178.090-58.190Q182.490-58.190 184.250-55.880Q186.010-53.570 185.900-50.490Q185.790-48.730 184.965-46.915Q184.140-45.100 182.545-43.890Q180.950-42.680 178.530-42.680Q175.780-42.680 174.515-44.275Q173.250-45.870 173.360-47.960Q173.360-50.050 174.790-52.140Q176.220-54.230 178.090-55.660Q177.870-55.770 177.760-55.825Q177.650-55.880 177.320-55.880M198.990-22.880L199.100-24.640Q204.710-26.620 209.385-28.710Q214.060-30.800 217.030-33.220Q221.100-36.630 223.465-41.305Q225.830-45.980 225.830-51.590Q225.830-54.450 225.390-55.275Q224.950-56.100 224.070-56.100Q221.430-56.100 218.405-53.680Q215.380-51.260 212.410-47.025Q209.440-42.790 206.965-37.455Q204.490-32.120 203.005-26.125Q201.520-20.130 201.520-14.300Q201.520-8.580 203.665-6.160Q205.810-3.740 209.330-3.740Q212.960-3.740 217.360-5.995Q221.760-8.250 226.050-14.080L227.810-13.200Q225.610-9.570 222.090-6.160Q218.570-2.750 214.115-0.605Q209.660 1.540 204.490 1.540Q199.980 1.540 196.460-0.220Q192.940-1.980 191.015-5.445Q189.090-8.910 189.090-13.970Q189.090-19.030 190.905-25.025Q192.720-31.020 196.075-36.850Q199.430-42.680 204.050-47.575Q208.670-52.470 214.390-55.330Q220.110-58.190 226.490-58.190Q230.450-58.190 233.090-56.265Q235.730-54.340 235.730-50.490Q235.730-46.090 233.255-42.295Q230.780-38.500 226.600-35.420Q222.420-32.340 217.525-29.920Q212.630-27.500 207.735-25.740Q202.840-23.980 198.990-22.880M262.240-42.790L251.350 0L239.800 0L253-47.300Q253.990-50.820 253.660-52.250Q253.330-53.680 251.570-53.680Q249.370-53.680 247.500-51.370Q245.630-49.060 243.540-43.340L241.890-38.720L239.800-38.720L242.550-46.860Q244.200-51.370 246.510-53.790Q248.820-56.210 251.405-57.200Q253.990-58.190 256.520-58.190Q259.930-58.190 261.470-56.760Q263.010-55.330 263.340-53.020Q263.670-50.710 263.285-48.015Q262.900-45.320 262.240-42.790M279.510-55.550Q277.090-55.550 274.450-53.515Q271.810-51.480 269.060-47.410Q266.310-43.340 263.505-37.180Q260.700-31.020 257.895-22.825Q255.090-14.630 252.340-4.290L254.980-18.590Q258.500-29.810 261.580-37.400Q264.660-44.990 267.685-49.555Q270.710-54.120 273.955-56.155Q277.200-58.190 280.940-58.190Q284.460-58.190 286.385-56.155Q288.310-54.120 288.310-51.040Q288.310-48.510 287.100-46.475Q285.890-44.440 283.965-43.175Q282.040-41.910 279.620-41.910Q277.310-41.910 275.880-43.175Q274.450-44.440 274.450-46.750Q274.450-48.840 275.330-50.490Q276.210-52.140 277.640-53.350Q279.070-54.560 280.830-55.110Q280.610-55.330 280.280-55.440Q279.950-55.550 279.510-55.550M311.520-47.520L317.240-5.170L308.440 4.620L299.860-47.080Q299.310-50.380 298.650-51.645Q297.990-52.910 296.560-52.910Q295.460-52.910 294.030-51.095Q292.600-49.280 290.510-43.450L288.970-38.940L286.880-38.940L289.630-46.970Q291.940-53.680 295.350-55.935Q298.760-58.190 302.500-58.190Q306.350-58.190 308.495-55.935Q310.640-53.680 311.520-47.520M292.380 15.400Q297.330 12.870 302.720 8.525Q308.110 4.180 313.830-3.190Q320.210-11.220 325.270-21.010Q330.330-30.800 332.530-40.480Q330.440-41.690 328.295-43.395Q326.150-45.100 324.775-47.300Q323.400-49.500 323.510-52.250Q323.730-55.110 325.380-56.650Q327.030-58.190 329.780-58.190Q332.970-58.190 334.455-55.825Q335.940-53.460 335.940-48.950Q335.940-43.450 334.125-37.125Q332.310-30.800 329.175-24.200Q326.040-17.600 322.190-11.495Q318.340-5.390 314.270-0.330Q311.960 2.530 308.495 5.995Q305.030 9.460 300.685 12.760Q296.340 16.060 291.060 18.260Q288.090 19.580 285.835 20.130Q283.580 20.680 282.150 20.680Q279.510 20.680 277.695 19.360Q275.880 18.040 275.880 15.620Q275.880 13.090 277.805 11.550Q279.730 10.010 282.370 10.010Q285.230 10.010 287.705 11.605Q290.180 13.200 292.380 15.400" fill="#7D9268"/></g>
</svg>
